<?xml version="1.0" encoding="UTF-8"?>
<svg version="1.1" xmlns="http://www.w3.org/2000/svg" width="512" height="512">
<path d="M0 0 C13.1105986 9.73754958 13.1105986 9.73754958 19.0546875 15.34472656 C19.80335083 16.05036743 19.80335083 16.05036743 20.56713867 16.77026367 C21.91733983 18.06264823 23.24657044 19.37684072 24.57421875 20.69238281 C26.66934033 22.65027297 26.66934033 22.65027297 28.83569336 22.15014648 C32.22800909 20.89723121 34.66437733 18.34260217 37.31640625 15.95800781 C61.95175457 -5.63049777 93.043282 -28.66267753 127.06640625 -28.85449219 C127.96166016 -28.87511719 128.85691406 -28.89574219 129.77929688 -28.91699219 C140.98069232 -28.98169339 150.10325476 -25.57764854 158.87890625 -18.60449219 C175.0181072 -2.4931655 179.04082862 21.45537246 179.20800781 43.37890625 C179.2025293 44.64250977 179.19705078 45.90611328 179.19140625 47.20800781 C179.18991577 47.87304321 179.18842529 48.53807861 179.18688965 49.2232666 C179.10808583 68.99596916 176.39335812 88.16898437 171.87890625 107.39550781 C172.60811279 107.56058838 173.33731934 107.72566895 174.08862305 107.89575195 C181.55204892 109.6623528 188.585777 111.95762697 195.69140625 114.83300781 C196.76455078 115.26693848 197.83769531 115.70086914 198.94335938 116.14794922 C227.06085621 127.77012277 258.91631016 144.12512955 271.87890625 173.39550781 C276.56269695 185.58619594 275.68197087 197.17242933 270.73046875 209.18066406 C266.79487307 217.08597909 261.06513435 223.22458133 254.87890625 229.39550781 C254.10804688 230.17796875 253.3371875 230.96042969 252.54296875 231.76660156 C245.16292964 238.83179259 236.59221816 244.14400952 227.87890625 249.39550781 C226.98872803 249.93473877 226.98872803 249.93473877 226.08056641 250.48486328 C209.95008359 260.07887178 191.69158014 266.69383925 173.87890625 272.39550781 C174.63212221 281.19871937 176.001063 289.86986348 177.41796875 298.58691406 C181.43623684 323.92599269 181.60174907 349.76822015 173.87890625 374.39550781 C173.59273438 375.30945313 173.3065625 376.22339844 173.01171875 377.16503906 C168.65358427 389.41023991 160.13147606 399.068784 148.44140625 404.70800781 C131.25865342 411.65866998 112.74214904 408.04132009 96.09375 401.25878906 C83.69467247 395.92385692 71.81187106 389.30566323 60.87890625 381.39550781 C60.25918945 380.94949219 59.63947266 380.50347656 59.00097656 380.04394531 C50.98758317 374.24982423 43.35525176 368.30589271 36.2109375 361.45410156 C33.895004 359.40971805 31.57336344 357.893492 28.87890625 356.39550781 C28.31945312 356.91757812 27.76 357.43964844 27.18359375 357.97753906 C-0.40626247 383.3052045 -36.00514753 409.97378271 -75.203125 408.67675781 C-86.36363625 407.87560446 -96.74841615 402.87413126 -104.40234375 394.60644531 C-124.2193945 369.11451185 -123.52232933 333.45799904 -119.80859375 302.95800781 C-118.76963248 294.9634278 -117.43702093 287.05469098 -115.671875 279.18847656 C-114.99210933 276.21589765 -114.99210933 276.21589765 -115.12109375 272.39550781 C-115.6629834 272.22535156 -116.20487305 272.05519531 -116.76318359 271.87988281 C-151.76024245 260.79637544 -194.37137004 243.75255524 -212.49609375 209.33300781 C-218.2157378 197.17876421 -218.40279367 186.10986864 -214.12109375 173.39550781 C-210.33526655 164.20135604 -204.06921172 157.30459141 -197.12109375 150.39550781 C-195.93 149.20441406 -195.93 149.20441406 -194.71484375 147.98925781 C-178.29828053 132.44824463 -157.17800479 122.53332422 -136.37109375 114.33300781 C-135.19329346 113.86773682 -134.01549316 113.40246582 -132.80200195 112.9230957 C-126.61511759 110.5450217 -120.63692457 108.62242489 -114.12109375 107.39550781 C-114.31300293 106.7609668 -114.50491211 106.12642578 -114.70263672 105.47265625 C-116.88362735 97.92797393 -118.18588747 90.41982483 -119.24609375 82.64550781 C-119.41786133 81.4106665 -119.58962891 80.1758252 -119.76660156 78.90356445 C-120.91986544 70.40244212 -121.8644417 61.97661331 -122.12109375 53.39550781 C-122.18103516 52.10966797 -122.18103516 52.10966797 -122.2421875 50.79785156 C-122.84677674 27.78789623 -119.31128648 2.69716853 -104.30859375 -15.54199219 C-75.41761605 -45.8219592 -27.1024285 -19.85378104 0 0 Z M-88.12109375 1.39550781 C-97.13760125 15.19034878 -98.37219331 31.12491426 -98.43359375 47.14550781 C-98.43687683 47.84515656 -98.44015991 48.5448053 -98.44354248 49.26565552 C-98.46969849 66.63102584 -96.03682701 83.48024569 -92.12109375 100.39550781 C-83.23394687 99.59380699 -74.54794021 97.82305356 -65.8041687 96.10116577 C-57.6945838 94.51055682 -49.72018891 93.17297112 -41.4765625 92.46411133 C-31.5351727 91.64690759 -31.5351727 91.64690759 -23.93359375 85.58300781 C-22.62845188 83.54204522 -21.35931883 81.47774754 -20.12109375 79.39550781 C-18.41549726 77.07206071 -16.61202133 74.83093555 -14.80859375 72.58300781 C-14.35025146 71.99769287 -13.89190918 71.41237793 -13.41967773 70.80932617 C-5.44335045 60.62498062 3.16254007 50.94829297 11.87890625 41.39550781 C7.86842677 36.41388498 3.61909905 32.20016205 -1.37109375 28.20800781 C-2.06146729 27.65338867 -2.75184082 27.09876953 -3.46313477 26.52734375 C-22.85684698 11.19328628 -64.14636781 -20.37202114 -88.12109375 1.39550781 Z M45.87890625 39.39550781 C47.35431296 42.75700145 49.2581044 45.09186333 51.75390625 47.77050781 C61.88908315 58.86091704 71.31558434 70.33973305 80.30834961 82.37597656 C80.8266333 83.04242188 81.34491699 83.70886719 81.87890625 84.39550781 C82.59240234 85.42788574 83.30589844 86.46026367 84.04101562 87.52392578 C87.18829142 91.25438218 90.51634672 91.61678722 95.1953125 92.15332031 C96.00078522 92.26734192 96.80625793 92.38136353 97.63613892 92.49884033 C100.23532138 92.86250527 102.83765601 93.19131762 105.44140625 93.52050781 C108.10506003 93.88563576 110.76731774 94.25992098 113.42958069 94.63504028 C115.1753866 94.88063559 116.92159382 95.12339564 118.66819763 95.36325073 C125.97663135 96.37450048 133.18661055 97.70521111 140.39477539 99.27880859 C143.68439557 99.99138668 146.48452055 100.39550781 149.87890625 100.39550781 C155.94561589 70.69777198 164.12756754 30.05757651 146.62890625 2.83300781 C142.36855292 -2.6830286 138.78050756 -5.08528685 131.85546875 -6.00683594 C98.63039413 -7.56544928 69.44596934 19.15602007 45.87890625 39.39550781 Z M27.87890625 57.39550781 C25.71291848 59.57369833 23.59832255 61.7748068 21.50390625 64.02050781 C20.87919434 64.68969238 20.25448242 65.35887695 19.61083984 66.04833984 C9.29635141 75.83852071 9.29635141 75.83852071 2.87890625 87.39550781 C20.03890625 87.39550781 37.19890625 87.39550781 54.87890625 87.39550781 C51.02069532 82.25122657 47.19067877 77.2517511 43.00390625 72.39550781 C42.48723389 71.79464355 41.97056152 71.1937793 41.43823242 70.57470703 C37.46445943 65.99143692 33.43458031 61.41448602 28.87890625 57.39550781 C28.54890625 57.39550781 28.21890625 57.39550781 27.87890625 57.39550781 Z M-18.31640625 114.59863281 C-19.27160156 116.10683594 -19.27160156 116.10683594 -20.24609375 117.64550781 C-20.6124292 118.21342041 -20.97876465 118.78133301 -21.35620117 119.36645508 C-22.17743024 120.65007804 -22.9872502 121.94104741 -23.78759766 123.23779297 C-25.22271995 125.55994801 -26.69195779 127.85835478 -28.1640625 130.15722656 C-39.26165769 147.63606473 -49.03415854 165.80224038 -58.12109375 184.39550781 C-58.54132813 185.07355469 -58.9615625 185.75160156 -59.39453125 186.45019531 C-60.77636671 190.14994833 -59.418248 193.69509017 -57.92871094 197.20605469 C-57.43016602 198.16576172 -56.93162109 199.12546875 -56.41796875 200.11425781 C-55.85674316 201.19989014 -55.29551758 202.28552246 -54.71728516 203.40405273 C-54.10804199 204.55623291 -53.49879883 205.70841309 -52.87109375 206.89550781 C-52.55775085 207.49231354 -52.24440796 208.08911926 -51.92156982 208.70401001 C-45.71900546 220.51144565 -39.15507281 232.06287838 -32.12109375 243.39550781 C-31.46254395 244.47219727 -30.80399414 245.54888672 -30.12548828 246.65820312 C-28.05041249 250.02844746 -25.9360816 253.37065057 -23.80859375 256.70800781 C-23.16293457 257.75947998 -22.51727539 258.81095215 -21.85205078 259.89428711 C-18.7859074 264.92852672 -18.7859074 264.92852672 -14.13647461 268.25610352 C-12.07105756 268.53616432 -10.19920487 268.51838076 -8.12109375 268.39550781 C-6.89777344 268.49992188 -5.67445313 268.60433594 -4.4140625 268.71191406 C18.81499587 270.21278898 42.66877262 270.2661753 65.87890625 268.39550781 C66.59030762 268.36030029 67.30170898 268.32509277 68.03466797 268.28881836 C71.34034408 268.04208651 73.43118396 267.77772999 75.98828125 265.59472656 C76.5296875 264.76585937 77.07109375 263.93699219 77.62890625 263.08300781 C78.28632813 262.08914063 78.94375 261.09527344 79.62109375 260.07128906 C80.37804365 258.84870861 81.1302316 257.62317323 81.87890625 256.39550781 C82.55228027 255.30375244 82.55228027 255.30375244 83.23925781 254.18994141 C86.34954004 249.1271509 89.38838482 244.02458142 92.40039062 238.90283203 C93.76253456 236.59285544 95.13789752 234.2915191 96.51953125 231.99316406 C100.96768352 224.56516484 105.20895115 217.0512265 109.25390625 209.39550781 C109.65883301 208.63036865 110.06375977 207.86522949 110.48095703 207.0769043 C111.6376933 204.86107207 112.7634237 202.63235937 113.87890625 200.39550781 C114.27883789 199.61949219 114.67876953 198.84347656 115.09082031 198.04394531 C117.34874639 193.41587404 118.60071679 190.48781236 116.87890625 185.39550781 C115.61800071 182.36295019 114.18651699 179.44394439 112.69140625 176.52050781 C112.25143311 175.65264648 111.81145996 174.78478516 111.3581543 173.890625 C103.29013225 158.21338622 94.06117452 143.17169625 84.75390625 128.20800781 C84.12653564 127.19834961 83.49916504 126.18869141 82.8527832 125.1484375 C82.26070068 124.20516602 81.66861816 123.26189453 81.05859375 122.29003906 C80.28104736 121.05024292 80.28104736 121.05024292 79.48779297 119.78540039 C78.95686035 118.99673584 78.42592773 118.20807129 77.87890625 117.39550781 C76.97615967 116.03752075 76.97615967 116.03752075 76.05517578 114.65209961 C73.28111356 111.77565165 71.82586724 111.66501592 67.87890625 111.39550781 C66.00634155 111.24106201 66.00634155 111.24106201 64.09594727 111.08349609 C62.67104258 110.99736712 61.24579533 110.91678261 59.8203125 110.84082031 C59.04103897 110.79877472 58.26176544 110.75672913 57.45887756 110.71340942 C48.81100042 110.28696809 40.1672654 110.24468457 31.51049805 110.26513672 C28.81488444 110.27051085 26.11943684 110.2651426 23.42382812 110.25878906 C1.05289972 108.70432698 1.05289972 108.70432698 -18.31640625 114.59863281 Z M-60.1640625 117.63769531 C-60.81433914 117.76612823 -61.46461578 117.89456116 -62.13459778 118.02688599 C-63.49907731 118.29809898 -64.86298155 118.57222107 -66.22631836 118.84912109 C-68.31124857 119.27104507 -70.39851973 119.67950094 -72.48632812 120.08691406 C-73.81656758 120.353036 -75.14665165 120.61993608 -76.4765625 120.88769531 C-77.67949951 121.12858887 -78.88243652 121.36948242 -80.12182617 121.61767578 C-83.27309299 122.25990634 -83.27309299 122.25990634 -86.12109375 124.39550781 C-84.75582155 128.54110992 -83.38645331 132.68533038 -82.01342773 136.82836914 C-81.54780686 138.23523125 -81.08326793 139.64245195 -80.61987305 141.05004883 C-79.95001272 143.0841457 -79.27615074 145.11688096 -78.6015625 147.14941406 C-78.19832764 148.36959229 -77.79509277 149.58977051 -77.37963867 150.84692383 C-76.10241246 154.44818145 -74.66331207 157.90151128 -73.12109375 161.39550781 C-70.97470055 158.65315464 -69.22081404 155.89996503 -67.58984375 152.82519531 C-67.11385742 151.93662842 -66.63787109 151.04806152 -66.14746094 150.13256836 C-65.39190918 148.71584839 -65.39190918 148.71584839 -64.62109375 147.27050781 C-60.13739191 138.93799521 -55.43977995 130.79122012 -50.42382812 122.76806641 C-48.1627518 119.77963919 -48.1627518 119.77963919 -47.12109375 116.39550781 C-51.64936388 116.25816972 -55.72376771 116.759304 -60.1640625 117.63769531 Z M104.87890625 116.39550781 C107.61269907 122.21967512 110.82204768 127.6871735 114.16430664 133.17626953 C117.78571973 139.15960202 121.17593932 145.26067406 124.51611328 151.40478516 C124.91169434 152.12746582 125.30727539 152.85014648 125.71484375 153.59472656 C126.23377197 154.55125122 126.23377197 154.55125122 126.76318359 155.52709961 C128.00118093 157.60027108 129.40142383 159.48746746 130.87890625 161.39550781 C132.32095097 157.43881567 133.75669551 153.47986458 135.19140625 149.52050781 C135.59552734 148.41191406 135.99964844 147.30332031 136.41601562 146.16113281 C140.94247388 135.05348824 140.94247388 135.05348824 142.87890625 123.39550781 C134.91332511 121.11134553 126.97612793 119.09981335 118.81640625 117.64550781 C118.11523682 117.51813232 117.41406738 117.39075684 116.69165039 117.25952148 C112.71051086 116.57809098 108.91544006 116.26956292 104.87890625 116.39550781 Z M165.87890625 129.39550781 C165.56775879 130.33007812 165.25661133 131.26464844 164.93603516 132.22753906 C163.46979149 136.62063435 161.98772372 141.00832285 160.50390625 145.39550781 C160.23689911 146.18850281 159.96989197 146.9814978 159.6947937 147.79852295 C155.88091858 159.0921907 151.80002307 170.11464892 146.56298828 180.84472656 C144.60714118 185.12693594 143.33923405 188.12238515 144.80078125 192.72753906 C145.46827765 194.2945097 146.1638007 195.84968361 146.87890625 197.39550781 C147.6919018 199.44612946 148.49730834 201.49976912 149.296875 203.55566406 C150.21962209 205.8566178 151.14281853 208.15739137 152.06640625 210.45800781 C157.16769478 223.27894534 161.69350376 236.24607932 165.87890625 249.39550781 C194.51767886 243.6389706 230.59120384 227.2486119 247.76171875 202.35644531 C250.77594344 197.06574324 252.74947066 191.63850431 251.55859375 185.47753906 C245.01030218 165.41869188 222.72723272 153.58089579 205.30249023 144.45019531 C192.74742727 138.11325501 179.41449609 133.18476528 165.87890625 129.39550781 Z M-183.05859375 168.89550781 C-189.02760777 175.06262764 -194.12109375 181.46754626 -194.12109375 190.39550781 C-192.86496322 198.23323895 -189.33684726 203.56484442 -184.12109375 209.39550781 C-183.64285156 209.9665625 -183.16460937 210.53761719 -182.671875 211.12597656 C-166.05102766 229.49179475 -132.49025381 246.64216258 -108.12109375 249.39550781 C-106.29360786 244.64404451 -104.58646534 239.86712685 -102.95703125 235.04394531 C-102.5607251 233.87347656 -102.16441895 232.70300781 -101.75610352 231.49707031 C-101.11923744 229.61349663 -100.48247143 227.72988485 -99.85031128 225.84472656 C-97.59117931 219.12425351 -95.26638766 212.50579426 -92.2890625 206.05957031 C-91.85094238 205.09615723 -91.41282227 204.13274414 -90.96142578 203.14013672 C-90.13787398 201.37124689 -89.27784517 199.61866803 -88.37451172 197.88916016 C-86.59304369 194.0376928 -85.84304335 191.58166409 -86.82788086 187.38037109 C-88.12507357 183.97900367 -89.59724935 180.70113964 -91.12109375 177.39550781 C-92.03277879 175.08710493 -92.92719678 172.77181188 -93.8046875 170.45019531 C-94.25481201 169.27932373 -94.70493652 168.10845215 -95.16870117 166.90209961 C-99.90742707 154.52048224 -104.36670512 142.11607352 -108.12109375 129.39550781 C-131.67434519 129.39550781 -166.94784144 153.20092047 -183.05859375 168.89550781 Z M-73.12109375 218.39550781 C-76.52487672 227.50822938 -79.92638578 236.622617 -83.05859375 245.83300781 C-83.45949219 247.00734375 -83.86039063 248.18167969 -84.2734375 249.39160156 C-85.30214646 252.51691631 -85.30214646 252.51691631 -85.12109375 256.39550781 C-72.49755146 259.45015369 -60.06323375 262.15321071 -47.12109375 263.39550781 C-48.86613888 258.28428096 -51.74717747 253.906646 -54.55859375 249.33300781 C-60.72837584 239.18857124 -66.48393533 228.84339975 -72.12109375 218.39550781 C-72.45109375 218.39550781 -72.78109375 218.39550781 -73.12109375 218.39550781 Z M129.87890625 218.39550781 C129.57823242 218.9572168 129.27755859 219.51892578 128.96777344 220.09765625 C122.7874764 231.61272215 116.4609399 242.99330635 109.62597656 254.13476562 C109.14870117 254.91561523 108.67142578 255.69646484 108.1796875 256.50097656 C107.75856689 257.18313232 107.33744629 257.86528809 106.90356445 258.56811523 C105.73155673 260.52395889 105.73155673 260.52395889 104.87890625 263.39550781 C118.12176328 262.10774087 130.92487536 259.37520735 143.87890625 256.39550781 C141.79297128 248.20479813 139.19299199 240.2776402 136.31640625 232.33300781 C135.91744141 231.20701172 135.51847656 230.08101563 135.10742188 228.92089844 C134.72134766 227.84904297 134.33527344 226.7771875 133.9375 225.67285156 C133.59001709 224.70597412 133.24253418 223.73909668 132.88452148 222.74291992 C131.99423773 220.26315227 131.99423773 220.26315227 129.87890625 218.39550781 Z M-91.12109375 278.39550781 C-92.45953377 282.2012053 -93.4929518 285.86670991 -94.15625 289.84472656 C-94.32576172 290.85857422 -94.49527344 291.87242187 -94.66992188 292.91699219 C-94.83943359 293.96177734 -95.00894531 295.0065625 -95.18359375 296.08300781 C-95.35697266 297.10845703 -95.53035156 298.13390625 -95.70898438 299.19042969 C-99.68427689 323.30111188 -102.79593209 355.36775538 -88.5234375 376.79394531 C-84.14478502 382.3196252 -79.81872613 384.83050048 -72.84765625 385.66894531 C-46.07102449 386.79547027 -20.27636031 367.3813245 -0.95361328 350.95166016 C1.43279679 348.92515099 3.84364183 346.92887204 6.25415039 344.93115234 C8.46878988 343.09355065 10.67433927 341.24517291 12.87890625 339.39550781 C9.26096776 335.09309447 5.52964449 330.94069258 1.69140625 326.83300781 C-3.80449813 320.90106939 -8.7804848 314.63328419 -13.70654297 308.22607422 C-16.63677936 304.4340631 -19.62072018 300.68378739 -22.59375 296.92529297 C-24.53329481 294.46261944 -26.38101872 292.00562035 -28.12109375 289.39550781 C-29.94226652 288.72430019 -29.94226652 288.72430019 -32.08569336 288.47583008 C-32.90512924 288.34882217 -33.72456512 288.22181427 -34.5688324 288.09095764 C-35.90761192 287.90333107 -35.90761192 287.90333107 -37.2734375 287.71191406 C-38.20217178 287.57027328 -39.13090607 287.42863251 -40.08778381 287.28269958 C-43.0763466 286.82875392 -46.06712882 286.39238095 -49.05859375 285.95800781 C-52.94385209 285.38342963 -56.82782351 284.80080547 -60.7109375 284.21191406 C-61.66253754 284.06823395 -62.61413757 283.92455383 -63.59457397 283.77651978 C-72.8501272 282.34574247 -81.9846836 280.44308247 -91.12109375 278.39550781 Z M142.359375 279.56738281 C125.79430723 283.16154819 109.36173608 285.9404004 92.53491211 288.01000977 C87.18576568 288.68235823 87.18576568 288.68235823 83.3203125 292.43066406 C82.35154899 293.76653973 81.39253358 295.10951853 80.44140625 296.45800781 C79.37374299 297.92478361 78.30334389 299.38957119 77.23046875 300.85253906 C76.67907227 301.60615723 76.12767578 302.35977539 75.55957031 303.13623047 C68.35272626 312.82422217 60.54446622 322.00819825 52.21875 330.74707031 C49.77566399 333.51236633 47.85288254 336.28638118 45.87890625 339.39550781 C67.49494248 359.94933096 97.64353107 384.14224712 128.69140625 384.83300781 C129.4095752 384.85564697 130.12774414 384.87828613 130.86767578 384.90161133 C136.93321648 384.87260653 140.22987444 382.76197623 144.63671875 378.82519531 C155.7960496 366.13544194 156.44699572 347.68829927 156.31640625 331.58300781 C156.31469421 330.83069885 156.31298218 330.07838989 156.31121826 329.30328369 C156.24392286 311.9506827 153.7484236 295.30285839 149.87890625 278.39550781 C147.25361608 278.39550781 144.92560202 278.99895714 142.359375 279.56738281 Z M2.87890625 291.39550781 C5.31144784 295.4497438 7.82477655 298.90618007 10.87890625 302.45800781 C11.35585937 303.01512451 11.8328125 303.57224121 12.32421875 304.14624023 C13.83554451 305.90211789 15.35566233 307.64996306 16.87890625 309.39550781 C17.38679687 309.98009766 17.8946875 310.5646875 18.41796875 311.16699219 C19.89426647 312.85716381 21.3836094 314.5346393 22.87890625 316.20800781 C23.33523437 316.72951416 23.7915625 317.25102051 24.26171875 317.78833008 C25.4053772 319.0499069 26.63664968 320.23089228 27.87890625 321.39550781 C31.0593406 321.73783593 31.0593406 321.73783593 33.26171875 319.15722656 C34.1850781 318.14085607 35.09856539 317.11546091 36.00390625 316.08300781 C36.72924561 315.27246948 36.72924561 315.27246948 37.46923828 314.44555664 C44.03385356 307.05470902 50.13101366 299.44255744 55.87890625 291.39550781 C38.38890625 291.39550781 20.89890625 291.39550781 2.87890625 291.39550781 Z " fill="#60DAFB" transform="translate(227.12109375,66.6044921875)"/>
<path d="M0 0 C10.50020859 9.09393065 17.71575577 19.12115708 18.73828125 33.3359375 C19.03338869 47.99811747 15.56379154 59.35486159 5.46875 70.20703125 C-5.76458051 80.97230632 -17.41819248 83.61214402 -32.359375 83.36328125 C-45.09964952 82.8009358 -54.75038471 76.25773833 -63.25 67.2109375 C-72.1501876 56.53484239 -74.46092208 44.5353717 -73.6953125 30.99365234 C-72.60473095 19.99241098 -66.5885269 10.30311171 -58.5 3.0234375 C-57.613125 2.1984375 -56.72625 1.3734375 -55.8125 0.5234375 C-40.10484231 -12.21141541 -15.92232197 -12.58858581 0 0 Z " fill="#60DAFB" transform="translate(283.5,218.9765625)"/>
</svg>
